<svg xmlns="http://www.w3.org/2000/svg" xmlns:xlink="http://www.w3.org/1999/xlink">
   <symbol id="arrow-bott" viewBox="0 0 10 5"><path d="M5 4.667a.667.667 0 01-.427-.154l-4-3.333A.668.668 0 011.426.153L5 3.14 8.573.26a.667.667 0 01.94.1.667.667 0 01-.093.973l-4 3.22a.667.667 0 01-.42.114z"/></symbol>

   <symbol id="arrow-right" viewBox="0 0 5 10"><path d="M4.668 5a.667.667 0 01-.154.427l-3.333 4a.667.667 0 11-1.027-.854L3.141 5 .26 1.427a.667.667 0 01.1-.94.667.667 0 01.973.093l3.22 4a.667.667 0 01.114.42z"/></symbol>

   <symbol id="fb" viewBox="0 0 12 20"><path d="M7.551 19.997V10.89h3.073l.456-3.565H7.551V5.053c0-1.028.287-1.733 1.764-1.733h1.87V.141a24.817 24.817 0 00-2.74-.14c-2.716 0-4.58 1.657-4.58 4.7v2.617H.812v3.565h3.06v9.114h3.68z"/></symbol>

   <symbol id="inst" viewBox="0 0 28 28"><path d="M23.94 9.894a7.256 7.256 0 00-.465-2.462 5.122 5.122 0 00-2.926-2.925 7.34 7.34 0 00-2.428-.467c-1.07-.048-1.408-.061-4.122-.061-2.713 0-3.06 0-4.122.061a7.34 7.34 0 00-2.428.467 5.119 5.119 0 00-2.925 2.925 7.282 7.282 0 00-.466 2.428c-.047 1.07-.062 1.409-.062 4.122s0 3.06.062 4.122c.017.832.174 1.652.466 2.43A5.123 5.123 0 007.45 23.46a7.318 7.318 0 002.427.5c1.07.048 1.41.062 4.123.062s3.06 0 4.122-.062a7.323 7.323 0 002.429-.466 5.128 5.128 0 002.925-2.925 7.32 7.32 0 00.466-2.43c.047-1.07.062-1.408.062-4.123-.002-2.713-.002-3.057-.064-4.12zm-9.947 9.22a5.136 5.136 0 01-5.137-5.137 5.136 5.136 0 1110.273 0 5.137 5.137 0 01-5.136 5.136zm5.34-9.266a1.197 1.197 0 11-.001-2.393 1.197 1.197 0 01.002 2.393z"/><path d="M13.993 17.313a3.337 3.337 0 100-6.673 3.337 3.337 0 000 6.673z"/></symbol>

   <symbol id="language" viewBox="0 0 20 20"><path d="M17.071 2.929A9.935 9.935 0 0010 0a9.935 9.935 0 00-7.071 2.929A9.935 9.935 0 000 10a9.935 9.935 0 002.929 7.071A9.935 9.935 0 0010 20a9.935 9.935 0 007.071-2.929A9.935 9.935 0 0020 10a9.935 9.935 0 00-2.929-7.071zM13.97 7.405c.91.164 1.749.384 2.482.658 1.488.556 2.376 1.28 2.376 1.937s-.888 1.381-2.376 1.937c-.733.274-1.571.495-2.482.658.087-.836.132-1.707.132-2.595 0-.888-.045-1.76-.132-2.595zm2.272-3.647a8.773 8.773 0 012.313 4.05 8.116 8.116 0 00-1.693-.843c-.894-.334-1.929-.595-3.052-.775-.18-1.123-.441-2.158-.775-3.052a8.113 8.113 0 00-.843-1.693 8.774 8.774 0 014.05 2.313zM12.93 10c0 .956-.054 1.888-.158 2.772-.884.104-1.816.158-2.772.158-.956 0-1.888-.054-2.772-.158A23.863 23.863 0 017.07 10c0-.956.054-1.888.158-2.772A23.862 23.862 0 0110 7.07c.956 0 1.888.054 2.772.158.104.884.158 1.816.158 2.772zM10 1.172c.657 0 1.381.888 1.937 2.376.274.733.495 1.571.658 2.482A25.234 25.234 0 0010 5.898c-.888 0-1.76.045-2.595.132.164-.91.384-1.749.658-2.482C8.62 2.06 9.343 1.172 10 1.172zM3.758 3.758a8.773 8.773 0 014.05-2.313 8.12 8.12 0 00-.843 1.693c-.334.894-.595 1.929-.775 3.052-1.123.18-2.158.441-3.052.775a8.12 8.12 0 00-1.693.843 8.773 8.773 0 012.313-4.05zm-.21 4.305a14.437 14.437 0 012.482-.658A25.23 25.23 0 005.898 10c0 .888.045 1.76.132 2.595a14.439 14.439 0 01-2.482-.658C2.06 11.381 1.172 10.657 1.172 10s.888-1.381 2.376-1.937zm.21 8.18a8.774 8.774 0 01-2.313-4.051 8.118 8.118 0 001.693.843c.894.334 1.929.595 3.052.775.18 1.123.441 2.158.775 3.052.249.665.532 1.232.843 1.693a8.773 8.773 0 01-4.05-2.313zM10 18.827c-.657 0-1.381-.888-1.937-2.376a14.435 14.435 0 01-.658-2.482c.836.087 1.707.132 2.595.132.888 0 1.76-.045 2.595-.132-.164.91-.384 1.749-.658 2.482-.556 1.488-1.28 2.376-1.937 2.376zm6.242-2.586a8.774 8.774 0 01-4.05 2.313 8.109 8.109 0 00.843-1.693c.334-.894.595-1.929.775-3.052 1.123-.18 2.158-.441 3.052-.775a8.114 8.114 0 001.693-.843 8.774 8.774 0 01-2.313 4.05z"/></symbol>

   <symbol id="search" viewBox="0 0 20 20"><path d="M19.336 18.21l-4.602-4.6A8.069 8.069 0 008.496.43a8.066 8.066 0 100 16.133 8.024 8.024 0 005.11-1.825l4.601 4.598a.797.797 0 001.129-1.125zm-10.84-3.253a6.47 6.47 0 01-6.465-6.46A6.473 6.473 0 018.496 2.03a6.475 6.475 0 016.465 6.465c0 3.563-2.902 6.461-6.465 6.461z"/></symbol>

   <symbol id="tm" viewBox="0 0 24 20"><path d="M23.598 1.803l-3.52 16.604c-.266 1.171-.959 1.463-1.943.911l-5.365-3.953-2.588 2.49c-.287.287-.526.526-1.079.526l.386-5.463 9.943-8.985c.432-.385-.095-.599-.672-.213L6.468 11.46 1.177 9.803C.026 9.444.005 8.653 1.417 8.1L22.114.126c.959-.36 1.797.213 1.484 1.677z"/></symbol>

   <symbol id="user" viewBox="0 0 20 20"><path d="M10 11.265c-6.009 0-9.318 2.843-9.318 8.005 0 .403.326.73.73.73h17.177a.73.73 0 00.73-.73c0-5.162-3.31-8.005-9.319-8.005zM2.168 18.54c.287-3.86 2.919-5.815 7.832-5.815 4.914 0 7.546 1.956 7.833 5.815H2.168zM10 0C7.24 0 5.158 2.123 5.158 4.939c0 2.898 2.172 5.255 4.842 5.255 2.67 0 4.842-2.357 4.842-5.255C14.842 2.123 12.76 0 10 0zm0 8.735c-1.865 0-3.382-1.703-3.382-3.796 0-2.016 1.422-3.48 3.382-3.48 1.928 0 3.382 1.496 3.382 3.48 0 2.093-1.517 3.796-3.382 3.796z"/></symbol>

   <symbol id="vk" viewBox="0 0 24 14"><path d="M22.643 1.283c.156-.516 0-.895-.735-.895H19.47c-.62 0-.903.328-1.059.688 0 0-1.239 3.02-2.994 4.98-.567.57-.826.75-1.135.75-.154 0-.379-.18-.379-.697V1.283c0-.62-.179-.895-.695-.895h-3.83c-.386 0-.62.286-.62.56 0 .586.879.722.969 2.375V6.91c0 .786-.142.929-.453.929-.825 0-2.834-3.032-4.026-6.503C5.016.66 4.782.389 4.159.389H1.725c-.696 0-.835.328-.835.688 0 .646.825 3.846 3.845 8.079 2.014 2.89 4.848 4.456 7.43 4.456 1.548 0 1.74-.348 1.74-.948V10.48c0-.696.147-.836.637-.836.36 0 .98.183 2.425 1.575 1.652 1.651 1.925 2.392 2.853 2.392h2.435c.696 0 1.044-.348.844-1.034-.22-.684-1.008-1.678-2.055-2.855-.569-.67-1.419-1.393-1.678-1.754-.36-.466-.256-.671 0-1.085.001.001 2.97-4.179 3.278-5.6z"/></symbol>

   <symbol id="weather" viewBox="0 0 20 20"><path d="M20 8.826a3.262 3.262 0 00-2.73-3.214 4.718 4.718 0 00-9.024-.568 6.113 6.113 0 00-4.622 4.723A4.161 4.161 0 000 13.888a4.16 4.16 0 004.155 4.155h10.912a4.16 4.16 0 004.155-4.155c0-.86-.263-1.66-.712-2.323A3.24 3.24 0 0020 8.826zm-7.327-5.632a3.478 3.478 0 013.456 3.067l.064.546h.55a2.022 2.022 0 01.904 3.827 4.137 4.137 0 00-2.049-.867A6.112 6.112 0 009.685 4.89a3.492 3.492 0 012.988-1.697zm2.394 13.612H4.155a2.921 2.921 0 01-2.918-2.918 2.922 2.922 0 012.918-2.918h.55l.065-.546a4.873 4.873 0 014.84-4.297 4.873 4.873 0 014.842 4.297l.065.546h.55c1.608 0 2.918 1.309 2.918 2.918a2.921 2.921 0 01-2.918 2.918z"/></symbol>

   <symbol id="ytb" viewBox="0 0 32 24"><path d="M12.697 16.35l8.643-4.688-8.643-4.743v9.431zM16.001.187c2 0 3.931.029 5.794.085 1.864.056 3.23.115 4.099.178l1.303.075c.012 0 .113.01.304.028.19.019.327.038.41.056.084.02.224.047.42.085.197.037.366.087.51.15.142.062.309.144.5.243.19.1.374.222.553.366a4.319 4.319 0 01.794.844c.113.156.286.522.518 1.097a7.43 7.43 0 01.473 1.893c.096.8.17 1.654.224 2.56.053.906.086 1.615.098 2.128v3.3a41.654 41.654 0 01-.322 5.437 7.793 7.793 0 01-.446 1.866c-.214.556-.405.94-.572 1.153l-.25.319c-.166.188-.339.353-.517.497a2.987 2.987 0 01-.554.356c-.19.094-.357.172-.5.235a2.397 2.397 0 01-.509.15c-.196.037-.34.065-.428.084a10.382 10.382 0 01-.705.084c-2.989.238-6.721.357-11.197.357a313.306 313.306 0 01-6.42-.122c-1.815-.057-3.009-.104-3.58-.141l-.875-.075-.643-.075a8.116 8.116 0 01-.973-.188c-.22-.062-.524-.193-.91-.393a3.585 3.585 0 01-1.01-.769 3.541 3.541 0 01-.277-.347c-.113-.156-.285-.522-.517-1.097a7.427 7.427 0 01-.474-1.894c-.095-.8-.17-1.653-.223-2.559a63.21 63.21 0 01-.098-2.128v-3.3a41.655 41.655 0 01.321-5.438C.406 4.6.554 3.978.77 3.422c.214-.556.405-.94.571-1.153l.25-.319c.167-.188.34-.353.518-.497.179-.144.363-.266.554-.366.19-.1.357-.18.5-.243.142-.063.312-.113.509-.15.196-.038.336-.066.42-.085.082-.018.22-.037.41-.056.19-.019.292-.028.303-.028C7.793.3 11.524.187 16.001.187z"/></symbol>

   <symbol id="arrow-link" viewBox="0 0 18 14"><path fill-rule="evenodd" d="M16.707 6.293l-6-6-1.414 1.414L13.586 6H1a1 1 0 000 2h12.586l-4.293 4.293 1.414 1.414 6-6L17.414 7l-.707-.707z" clip-rule="evenodd"/></symbol>

   <symbol id="email" viewBox="0 0 24 24"><path d="M21 4.5H3A1.5 1.5 0 001.5 6v12A1.5 1.5 0 003 19.5h18a1.5 1.5 0 001.5-1.5V6A1.5 1.5 0 0021 4.5zM19.35 6L12 11.085 4.65 6h14.7zM3 18V6.683l8.572 5.932a.75.75 0 00.856 0L21 6.682V18H3z"/></symbol>

   <symbol id="mark" viewBox="0 0 14 18"><path d="M9.5 3.375H2a1.251 1.251 0 00-1.25 1.25V16.5a.625.625 0 00.988.509l4.011-2.866 4.013 2.866a.625.625 0 00.988-.509V4.625a1.252 1.252 0 00-1.25-1.25zm0 11.91l-3.387-2.419a.625.625 0 00-.727 0L2 15.286V4.624h7.5v10.66zm3.75-13.16V14A.624.624 0 1112 14V2.125H3.875a.625.625 0 010-1.25H12a1.252 1.252 0 011.25 1.25z"/></symbol>

   <symbol id="Star-half" viewBox="0 0 19 18"><path fill="currentColor" fill-opacity=".04" d="M14.406 10.731a.886.886 0 00-.255.785l.784 4.57a.753.753 0 01-.3.837.965.965 0 01-1.018.073L9.43 14.737a.887.887 0 00-.825 0l-4.016 2.26a.966.966 0 01-1.017-.074.872.872 0 01-.472-.838l.96-4.664a.887.887 0 00-.255-.785l-3.5-2.75A.965.965 0 01.84 6.24l4.547-.8a.887.887 0 00.668-.485L8.148.536A.964.964 0 019.017 0a.965.965 0 01.866.538l2.01 4.418a.887.887 0 00.669.485l4.629.8a.964.964 0 01.534 1.647l-3.32 2.843z"/><path d="M8.995 2.117c-.007 1.41-.012 3.327.008 5.221.032 3.143 0 6.186 0 7.114l-4.47 2.322a.953.953 0 01-1-.073.862.862 0 01-.465-.828l.949-4.608a.876.876 0 00-.252-.776L.305 7.774a.953.953 0 01.529-1.627l4.493-.788a.876.876 0 00.659-.475L8.054.514A1.084 1.084 0 019.003 0C9.006.241 9 1.028 8.995 2.117z"/></symbol>

   <symbol id="Star-unselected" viewBox="0 0 19 18"><path fill-opacity=".04" d="M14.41 10.731a.887.887 0 00-.255.785l.784 4.569a.754.754 0 01-.3.838.965.965 0 01-1.018.073l-4.187-2.259a.887.887 0 00-.825 0l-4.016 2.259a.966.966 0 01-1.017-.073.872.872 0 01-.472-.838l.96-4.664a.887.887 0 00-.255-.785l-3.5-2.75a.965.965 0 01.535-1.647l4.547-.8a.887.887 0 00.668-.485L8.152.536A.964.964 0 019.02 0a.965.965 0 01.866.538l2.01 4.418a.887.887 0 00.669.485l4.629.8a.964.964 0 01.534 1.647l-3.32 2.843z"/></symbol>

   <symbol id="Star" viewBox="0 0 19 18"><path d="M14.397 10.731a.887.887 0 00-.255.785l.784 4.569a.753.753 0 01-.3.838.965.965 0 01-1.018.073l-4.187-2.259a.887.887 0 00-.825 0L4.58 16.996a.966.966 0 01-1.017-.073.872.872 0 01-.472-.838l.96-4.664a.887.887 0 00-.255-.785l-3.5-2.75a.965.965 0 01.535-1.647l4.547-.8a.887.887 0 00.668-.485L8.14.536A.964.964 0 019.01 0a.965.965 0 01.865.538l2.011 4.418a.887.887 0 00.668.485l4.63.8a.964.964 0 01.533 1.647l-3.319 2.843z"/></symbol>

   <symbol id="heart" viewBox="0 0 20 20"><g clip-path="url(#clip0_96_2500)"><path d="M10 18.649a.586.586 0 01-.293-.079 34.991 34.991 0 01-4.81-3.46c-1.405-1.213-2.527-2.416-3.335-3.575C.517 10.035-.008 8.59 0 7.245.01 5.68.571 4.208 1.58 3.1 2.606 1.972 3.974 1.35 5.434 1.35 7.305 1.351 9.016 2.4 10 4.06c.985-1.66 2.695-2.709 4.566-2.709 1.38 0 2.695.56 3.706 1.577C19.38 4.044 20.01 5.62 20 7.253c-.008 1.344-.544 2.784-1.59 4.283-.81 1.158-1.931 2.36-3.332 3.573a35.115 35.115 0 01-4.783 3.46.586.586 0 01-.295.08z"/></g></symbol>

</svg>