<svg width="22" height="24" viewBox="0 0 22 24" fill="none" xmlns="http://www.w3.org/2000/svg">
<path d="M20.8668 7.85905C21.1426 7.54027 21.3756 7.30732 21.3756 7.30732C21.3756 7.30732 21.2407 7.35636 21.0078 7.35636C19.4875 7.49736 17.8813 7.4054 17.0966 5.84218C17.0476 5.79313 17.0966 5.79313 17.0476 5.70118C16.8146 6.01995 16.7227 6.20386 16.3549 6.62072C16.0361 6.98854 15.6683 7.35636 15.2514 7.58931C14.8346 7.86517 14.2828 7.95713 13.8231 7.68126C13.3204 7.36249 13.2223 6.71881 13.2713 6.20999C13.3633 5.65827 13.5472 5.14945 13.7801 4.64677C14.056 4.046 14.1909 3.905 14.4238 3.58623C14.056 3.58623 13.6453 3.63527 13.2284 3.40232C12.3089 2.85059 11.7142 1.69809 11.2974 0.735636C11.1135 0.324906 11.0215 0 11.0215 0C11.0215 0 10.8805 0.410732 10.7579 0.729507C10.2981 1.69196 9.69736 2.84446 8.77781 3.39619C8.41 3.62914 7.99926 3.5801 7.5824 3.5801C7.80923 3.905 7.95022 4.046 8.22609 4.64064C8.45904 5.14332 8.68586 5.65214 8.7349 6.20386C8.82685 6.70655 8.68586 7.35023 8.22609 7.67514C7.76631 7.951 7.21459 7.85905 6.79773 7.58318C6.38087 7.35023 6.01305 6.98241 5.64523 6.61459C5.27741 6.19773 5.18546 6.01996 4.9525 5.69505C4.9525 5.787 4.95251 5.787 4.90346 5.83605C4.67051 6.29582 4.39465 6.80463 3.84292 7.0805C3.06437 7.49736 1.96092 7.44831 0.99233 7.35636C0.808421 7.35636 0.808421 7.35636 0.624512 7.30732C0.857463 7.54027 0.900375 7.54027 1.13333 7.85905C1.91188 8.73568 2.69655 9.79009 2.88046 10.8935C2.97242 11.4024 2.73947 11.905 2.55556 12.3219C2.51264 12.4139 2.51264 12.4139 2.4636 12.4629C2.73947 12.5058 2.78851 12.5058 3.15633 12.6468C3.4751 12.7388 3.80001 12.8736 4.07587 13.0575C4.39465 13.2414 4.67051 13.5602 4.71955 13.9771C4.7686 14.4859 4.49273 14.9457 4.16783 15.2644C3.84292 15.6384 3.43219 15.9081 3.01533 16.1411C2.78851 16.2759 2.78851 16.233 2.55556 16.325C2.55556 16.3679 2.55556 16.3679 2.6046 16.3679C3.29732 16.5518 4.07587 16.8277 4.58469 17.3794C4.9525 17.7472 5.04446 18.207 5.18546 18.6238C5.46132 18.348 5.55327 18.207 6.06209 17.7472C6.98163 17.0116 8.03605 16.184 9.09659 16.0001C9.59927 15.9572 10.0161 16.184 10.292 16.3679C10.6108 16.5028 10.8437 16.6438 11.0276 16.6438C11.1686 16.6438 11.3955 16.5089 11.7204 16.3679C12.0391 16.184 12.407 15.951 12.9158 16.0001C14.0192 16.184 15.0736 17.0116 15.9503 17.7472C16.453 18.207 16.5939 18.348 16.8698 18.6238C16.9618 18.207 17.0966 17.7472 17.4215 17.3794C17.9242 16.8277 18.7518 16.5518 19.4445 16.3679C19.4445 16.325 19.4445 16.325 19.4445 16.325C19.2606 16.233 19.2177 16.2821 18.9848 16.1411C18.5679 15.9081 18.1572 15.6323 17.8323 15.2644C17.5135 14.9457 17.2315 14.4859 17.2805 13.9771C17.3235 13.5664 17.6484 13.2414 17.9242 13.0575C18.2001 12.8798 18.5679 12.7388 18.8928 12.6468C19.2116 12.5119 19.3035 12.5119 19.5365 12.4629C19.4936 12.4139 19.4936 12.4139 19.4445 12.3219C19.2606 11.905 19.0706 11.4024 19.1196 10.8935C19.3035 9.79009 20.1311 8.73568 20.8668 7.85905Z" fill="#E55241"/>
<path d="M10.5372 17.5571L10.0774 24H11.9165L11.4567 17.5571H10.5372Z" fill="#E55241"/>
</svg>
