<svg width="10" height="5" viewBox="0 0 10 5" fill="none" xmlns="http://www.w3.org/2000/svg">
<path d="M4.99953 4.66665C4.84376 4.66695 4.69281 4.6127 4.57287 4.51331L0.572866 1.17998C0.436722 1.06682 0.351105 0.904213 0.334852 0.727929C0.318599 0.551645 0.37304 0.376124 0.486199 0.23998C0.599358 0.103836 0.761966 0.0182197 0.93825 0.00196652C1.11453 -0.0142866 1.29005 0.0401543 1.4262 0.153313L4.99953 3.13998L8.57286 0.25998C8.64106 0.204603 8.71952 0.163249 8.80375 0.138294C8.88797 0.11334 8.9763 0.105277 9.06365 0.11457C9.151 0.123863 9.23566 0.150327 9.31275 0.192443C9.38984 0.234559 9.45785 0.291496 9.51286 0.35998C9.57392 0.428528 9.62016 0.508945 9.64869 0.596194C9.67721 0.683443 9.68742 0.775644 9.67865 0.867019C9.66989 0.958395 9.64235 1.04698 9.59776 1.12721C9.55318 1.20745 9.4925 1.27762 9.41953 1.33331L5.41953 4.55331C5.29614 4.63699 5.14827 4.67689 4.99953 4.66665V4.66665Z" fill="#3A3E48"/>
</svg>
