<svg width="5" height="10" viewBox="0 0 5 10" fill="none" xmlns="http://www.w3.org/2000/svg">
<path d="M4.6675 4.99998C4.6678 5.15575 4.61355 5.30671 4.51417 5.42665L1.18083 9.42665C1.06768 9.56279 0.905068 9.64841 0.728784 9.66466C0.5525 9.68091 0.376979 9.62647 0.240835 9.51331C0.10469 9.40015 0.0190741 9.23755 0.00282098 9.06126C-0.0134322 8.88498 0.0410088 8.70946 0.154168 8.57331L3.14083 4.99998L0.260835 1.42665C0.205457 1.35846 0.164103 1.27999 0.139148 1.19577C0.114194 1.11154 0.106131 1.02321 0.115424 0.93586C0.124717 0.848508 0.151181 0.763852 0.193297 0.686762C0.235413 0.609671 0.29235 0.541662 0.360834 0.486648C0.429382 0.425594 0.509799 0.379355 0.597049 0.350826C0.684298 0.322298 0.776498 0.312097 0.867874 0.320858C0.959249 0.32962 1.04783 0.357158 1.12807 0.401747C1.20831 0.446335 1.27847 0.507014 1.33417 0.579982L4.55417 4.57998C4.63784 4.70337 4.67775 4.85125 4.6675 4.99998Z" fill="white"/>
</svg>
