<svg width="28" height="28" viewBox="0 0 28 28" fill="none" xmlns="http://www.w3.org/2000/svg">
<path d="M23.9405 9.89444C23.9293 9.05291 23.7718 8.21974 23.475 7.43222C23.2176 6.76794 22.8245 6.16466 22.3207 5.66092C21.817 5.15717 21.2137 4.76405 20.5494 4.50666C19.772 4.21483 18.9507 4.05704 18.1205 4.03999C17.0516 3.99222 16.7128 3.97888 13.9994 3.97888C11.2861 3.97888 10.9383 3.97888 9.8772 4.03999C9.04738 4.05716 8.22648 4.21496 7.44943 4.50666C6.78505 4.76387 6.18167 5.15693 5.67791 5.6607C5.17414 6.16446 4.78108 6.76784 4.52387 7.43222C4.23146 8.20903 4.07401 9.03012 4.05832 9.85999C4.01054 10.93 3.99609 11.2689 3.99609 13.9822C3.99609 16.6955 3.99609 17.0422 4.05832 18.1044C4.07498 18.9355 4.23165 19.7556 4.52387 20.5344C4.78151 21.1986 5.17487 21.8017 5.6788 22.3053C6.18273 22.8088 6.78616 23.2017 7.45054 23.4589C8.22546 23.7624 9.04651 23.9315 9.87832 23.9589C10.9483 24.0067 11.2872 24.0211 14.0005 24.0211C16.7139 24.0211 17.0616 24.0211 18.1228 23.9589C18.9529 23.9425 19.7743 23.7851 20.5516 23.4933C21.2157 23.2356 21.8189 22.8424 22.3226 22.3387C22.8263 21.835 23.2195 21.2319 23.4772 20.5678C23.7694 19.79 23.9261 18.97 23.9428 18.1378C23.9905 17.0689 24.005 16.73 24.005 14.0155C24.0028 11.3022 24.0028 10.9578 23.9405 9.89444ZM13.9928 19.1133C11.155 19.1133 8.85609 16.8144 8.85609 13.9767C8.85609 11.1389 11.155 8.83999 13.9928 8.83999C15.3551 8.83999 16.6616 9.38118 17.6249 10.3445C18.5882 11.3078 19.1294 12.6143 19.1294 13.9767C19.1294 15.339 18.5882 16.6455 17.6249 17.6088C16.6616 18.5721 15.3551 19.1133 13.9928 19.1133ZM19.3339 9.84777C19.1765 9.84792 19.0207 9.81704 18.8753 9.75689C18.7299 9.69675 18.5978 9.60853 18.4866 9.49728C18.3753 9.38602 18.2871 9.25392 18.227 9.10854C18.1668 8.96315 18.1359 8.80733 18.1361 8.64999C18.1361 8.49277 18.1671 8.33709 18.2272 8.19184C18.2874 8.04658 18.3756 7.9146 18.4868 7.80343C18.5979 7.69226 18.7299 7.60407 18.8752 7.5439C19.0204 7.48374 19.1761 7.45277 19.3333 7.45277C19.4905 7.45277 19.6462 7.48374 19.7915 7.5439C19.9367 7.60407 20.0687 7.69226 20.1799 7.80343C20.2911 7.9146 20.3792 8.04658 20.4394 8.19184C20.4996 8.33709 20.5305 8.49277 20.5305 8.64999C20.5305 9.31222 19.995 9.84777 19.3339 9.84777Z" fill="white"/>
<path d="M13.9929 17.3133C15.8357 17.3133 17.3296 15.8195 17.3296 13.9767C17.3296 12.1339 15.8357 10.64 13.9929 10.64C12.1501 10.64 10.6562 12.1339 10.6562 13.9767C10.6562 15.8195 12.1501 17.3133 13.9929 17.3133Z" fill="white"/>
</svg>
