<svg width="19" height="18" viewBox="0 0 19 18" fill="none" xmlns="http://www.w3.org/2000/svg">
<path d="M14.3974 10.731C14.2944 10.8314 14.2174 10.9553 14.173 11.092C14.1286 11.2288 14.1181 11.3743 14.1424 11.516L14.9264 16.085C14.9718 16.2385 14.9672 16.4024 14.9132 16.553C14.8593 16.7037 14.7588 16.8332 14.6264 16.923C14.4621 17.0422 14.2644 17.1066 14.0614 17.107C13.9036 17.1077 13.748 17.0695 13.6084 16.996L9.42138 14.737C9.29415 14.6702 9.15259 14.6353 9.00888 14.6353C8.86516 14.6353 8.7236 14.6702 8.59638 14.737L4.58038 16.996C4.42092 17.0799 4.24118 17.1175 4.06146 17.1046C3.88175 17.0917 3.70922 17.0288 3.56338 16.923C3.4112 16.845 3.28532 16.724 3.2014 16.575C3.11747 16.426 3.07921 16.2556 3.09138 16.085L4.05138 11.421C4.07568 11.2793 4.06517 11.1338 4.02075 10.997C3.97632 10.8603 3.89932 10.7364 3.79638 10.636L0.296377 7.88601C0.167154 7.76035 0.0757107 7.601 0.032409 7.42602C-0.0108927 7.25105 -0.00432178 7.06745 0.0513772 6.89601C0.107162 6.72464 0.209773 6.5723 0.347612 6.4562C0.485451 6.34009 0.65302 6.26486 0.831377 6.23901L5.37838 5.43901C5.5207 5.41838 5.65587 5.36345 5.77224 5.27896C5.88861 5.19447 5.98269 5.08295 6.04638 4.95401L8.13938 0.536015C8.21952 0.374274 8.34346 0.238282 8.49709 0.143521C8.65072 0.0487605 8.82787 -0.00096243 9.00838 1.41123e-05C9.18856 -0.000100182 9.36517 0.0502334 9.51822 0.145316C9.67128 0.240398 9.79465 0.376432 9.87438 0.538014L11.8854 4.95601C11.9491 5.08495 12.0431 5.19647 12.1595 5.28096C12.2759 5.36545 12.4111 5.42038 12.5534 5.44101L17.1824 6.24101C17.3606 6.26682 17.5281 6.34204 17.6658 6.45817C17.8035 6.57429 17.9059 6.72666 17.9614 6.89802C18.0168 7.06947 18.0233 7.25301 17.98 7.42794C17.9367 7.60287 17.8454 7.76222 17.7164 7.88801L14.3974 10.731Z" fill="#FADB14"/>
</svg>
