<svg width="19" height="18" viewBox="0 0 19 18" fill="none" xmlns="http://www.w3.org/2000/svg">
<path d="M14.4098 10.731C14.3069 10.8314 14.2299 10.9553 14.1855 11.092C14.141 11.2288 14.1305 11.3743 14.1548 11.516L14.9388 16.085C14.9842 16.2385 14.9796 16.4024 14.9257 16.553C14.8717 16.7037 14.7713 16.8332 14.6388 16.923C14.4745 17.0422 14.2768 17.1066 14.0738 17.107C13.916 17.1077 13.7605 17.0695 13.6208 16.996L9.43383 14.737C9.3066 14.6702 9.16504 14.6353 9.02133 14.6353C8.87761 14.6353 8.73606 14.6702 8.60883 14.737L4.59283 16.996C4.43337 17.0799 4.25363 17.1175 4.07391 17.1046C3.8942 17.0917 3.72167 17.0288 3.57583 16.923C3.42365 16.845 3.29777 16.724 3.21385 16.575C3.12993 16.426 3.09167 16.2556 3.10383 16.085L4.06383 11.421C4.08813 11.2793 4.07762 11.1338 4.0332 10.997C3.98878 10.8603 3.91178 10.7364 3.80883 10.636L0.308828 7.88601C0.179605 7.76035 0.0881618 7.601 0.0448602 7.42602C0.00155848 7.25105 0.00812939 7.06745 0.0638284 6.89601C0.119613 6.72464 0.222225 6.5723 0.360063 6.4562C0.497902 6.34009 0.665471 6.26486 0.843828 6.23901L5.39083 5.43901C5.53315 5.41838 5.66832 5.36345 5.78469 5.27896C5.90106 5.19447 5.99514 5.08295 6.05883 4.95401L8.15183 0.536015C8.23197 0.374274 8.35591 0.238282 8.50954 0.143521C8.66317 0.0487605 8.84032 -0.00096243 9.02083 1.41123e-05C9.20101 -0.000100182 9.37762 0.0502334 9.53067 0.145316C9.68373 0.240398 9.8071 0.376432 9.88683 0.538014L11.8978 4.95601C11.9615 5.08495 12.0556 5.19647 12.172 5.28096C12.2883 5.36545 12.4235 5.42038 12.5658 5.44101L17.1948 6.24101C17.3731 6.26682 17.5406 6.34204 17.6782 6.45817C17.8159 6.57429 17.9183 6.72666 17.9738 6.89802C18.0293 7.06947 18.0357 7.25301 17.9925 7.42794C17.9492 7.60287 17.8579 7.76222 17.7288 7.88801L14.4098 10.731Z" fill="black" fill-opacity="0.04"/>
</svg>
