<svg width="19" height="18" viewBox="0 0 19 18" fill="none" xmlns="http://www.w3.org/2000/svg">
<path d="M14.4057 10.7313C14.3027 10.8317 14.2257 10.9556 14.1813 11.0924C14.1369 11.2291 14.1264 11.3746 14.1507 11.5163L14.9347 16.0853C14.9801 16.2388 14.9755 16.4027 14.9215 16.5533C14.8676 16.704 14.7671 16.8336 14.6347 16.9233C14.4704 17.0425 14.2727 17.1069 14.0697 17.1073C13.9119 17.108 13.7563 17.0699 13.6167 16.9963L9.42968 14.7373C9.30245 14.6705 9.16089 14.6356 9.01718 14.6356C8.87346 14.6356 8.7319 14.6705 8.60468 14.7373L4.58868 16.9963C4.42922 17.0802 4.24948 17.1178 4.06976 17.1049C3.89005 17.092 3.71752 17.0291 3.57168 16.9233C3.4195 16.8453 3.29362 16.7243 3.2097 16.5753C3.12578 16.4263 3.08752 16.2559 3.09968 16.0853L4.05968 11.4213C4.08398 11.2796 4.07347 11.1341 4.02905 10.9974C3.98463 10.8606 3.90762 10.7367 3.80468 10.6363L0.304678 7.88634C0.175455 7.76067 0.0840115 7.60132 0.0407098 7.42634C-0.00259191 7.25137 0.003979 7.06777 0.059678 6.89633C0.115463 6.72497 0.218074 6.57262 0.355913 6.45652C0.493752 6.34041 0.661321 6.26518 0.839678 6.23934L5.38668 5.43933C5.529 5.4187 5.66417 5.36377 5.78054 5.27928C5.89691 5.19479 5.99099 5.08327 6.05468 4.95434L8.14768 0.536336C8.22782 0.374595 8.35176 0.238602 8.50539 0.143842C8.65902 0.0490809 8.83617 -0.000641996 9.01668 0.000334547C9.19686 0.000220252 9.37347 0.0505538 9.52652 0.145636C9.67958 0.240719 9.80295 0.376752 9.88268 0.538335L11.8937 4.95634C11.9574 5.08527 12.0514 5.19679 12.1678 5.28128C12.2842 5.36577 12.4194 5.4207 12.5617 5.44133L17.1907 6.24133C17.3689 6.26714 17.5364 6.34236 17.6741 6.45849C17.8118 6.57461 17.9142 6.72698 17.9697 6.89834C18.0251 7.06979 18.0316 7.25333 17.9883 7.42826C17.945 7.60319 17.8537 7.76254 17.7247 7.88834L14.4057 10.7313Z" fill="black" fill-opacity="0.04"/>
<path d="M8.99467 2.11733C8.98767 3.52733 8.98267 5.44433 9.00267 7.33833C9.03467 10.4813 9.00267 13.5243 9.00267 14.4523L4.53367 16.7743C4.37664 16.8562 4.19992 16.8927 4.02331 16.8798C3.8467 16.8669 3.67716 16.8051 3.53367 16.7013C3.38341 16.6242 3.25914 16.5045 3.17629 16.3573C3.09345 16.2101 3.05568 16.0418 3.06767 15.8733L4.01667 11.2653C4.04078 11.1252 4.03044 10.9814 3.98653 10.8462C3.94263 10.711 3.86648 10.5885 3.76467 10.4893L0.305673 7.77433C0.177991 7.6502 0.0876415 7.49279 0.0448683 7.31992C0.00209507 7.14706 0.00860947 6.96568 0.0636729 6.79633C0.118818 6.62716 0.220128 6.47676 0.356178 6.36209C0.492229 6.24742 0.657609 6.17304 0.833673 6.14733L5.32667 5.35933C5.46671 5.33925 5.5998 5.28556 5.71456 5.20284C5.82932 5.12012 5.92235 5.01083 5.98567 4.88433L8.05367 0.51433C8.15318 0.353232 8.29316 0.221012 8.45966 0.130831C8.62616 0.0406507 8.81338 -0.00434357 9.00267 0.000330339C9.00567 0.24133 8.99967 1.02833 8.99467 2.11733Z" fill="#FADB14"/>
</svg>
