<svg width="24" height="14" viewBox="0 0 24 14" fill="none" xmlns="http://www.w3.org/2000/svg">
<path d="M22.6431 1.28331C22.7987 0.766646 22.6431 0.387756 21.9076 0.387756H19.4709C18.8509 0.387756 18.5676 0.715535 18.412 1.07553C18.412 1.07553 17.1731 4.09665 15.4176 6.05553C14.8509 6.62553 14.592 6.80553 14.2831 6.80553C14.1287 6.80553 13.9042 6.62553 13.9042 6.10887V1.28331C13.9042 0.663312 13.7253 0.387756 13.2087 0.387756H9.37978C8.99312 0.387756 8.75978 0.674423 8.75978 0.947757C8.75978 1.53442 9.63756 1.66998 9.72756 3.32331V6.90998C9.72756 7.69553 9.58645 7.83887 9.27534 7.83887C8.44978 7.83887 6.44089 4.80665 5.24867 1.33553C5.01645 0.66109 4.78201 0.388868 4.15978 0.388868H1.72423C1.02756 0.388868 0.888672 0.716646 0.888672 1.07665C0.888672 1.72331 1.71423 4.92331 4.73423 9.15553C6.74756 12.0455 9.58201 13.6122 12.1642 13.6122C13.712 13.6122 13.9031 13.2644 13.9031 12.6644V10.48C13.9031 9.78442 14.0509 9.64442 14.5409 9.64442C14.9009 9.64442 15.5209 9.82665 16.9664 11.2189C18.6176 12.87 18.8909 13.6111 19.8187 13.6111H22.2542C22.9498 13.6111 23.2976 13.2633 23.0976 12.5766C22.8787 11.8933 22.0898 10.8989 21.0431 9.7222C20.4742 9.05109 19.6242 8.32887 19.3653 7.96776C19.0042 7.5022 19.1087 7.29665 19.3653 6.88331C19.3664 6.88442 22.3342 2.70442 22.6431 1.28331Z" fill="white"/>
</svg>
