<svg width="32" height="24" viewBox="0 0 32 24" fill="none" xmlns="http://www.w3.org/2000/svg">
<path d="M12.6973 16.35L21.3401 11.6625L12.6973 6.91875V16.35ZM16.0009 0.1875C18.0008 0.1875 19.9324 0.215625 21.7955 0.271875C23.6586 0.328125 25.0246 0.3875 25.8937 0.45L27.1973 0.525C27.2092 0.525 27.3103 0.534375 27.5008 0.553125C27.6913 0.571875 27.8282 0.590625 27.9115 0.609375C27.9949 0.628125 28.1347 0.65625 28.3312 0.69375C28.5276 0.73125 28.6972 0.78125 28.8401 0.84375C28.983 0.90625 29.1496 0.9875 29.3401 1.0875C29.5306 1.1875 29.7151 1.30938 29.8937 1.45312C30.0722 1.59688 30.2449 1.7625 30.4115 1.95C30.483 2.025 30.5752 2.14063 30.6883 2.29688C30.8014 2.45312 30.974 2.81875 31.2062 3.39375C31.4383 3.96875 31.596 4.6 31.6794 5.2875C31.7746 6.0875 31.849 6.94063 31.9026 7.84688C31.9562 8.75313 31.9889 9.4625 32.0008 9.975V13.275C32.0127 15.0875 31.9056 16.9 31.6794 18.7125C31.596 19.4 31.4472 20.0219 31.233 20.5781C31.0187 21.1344 30.8282 21.5188 30.6615 21.7313L30.4115 22.05C30.2449 22.2375 30.0722 22.4031 29.8937 22.5469C29.7151 22.6906 29.5306 22.8094 29.3401 22.9031C29.1496 22.9969 28.983 23.075 28.8401 23.1375C28.6972 23.2 28.5276 23.25 28.3312 23.2875C28.1347 23.325 27.9919 23.3531 27.9026 23.3719C27.8133 23.3906 27.6764 23.4094 27.4919 23.4281C27.3074 23.4469 27.2092 23.4563 27.1973 23.4563C24.2092 23.6938 20.477 23.8125 16.0009 23.8125C13.5366 23.7875 11.3967 23.7469 9.58122 23.6906C7.76575 23.6344 6.5723 23.5875 6.00088 23.55L5.12588 23.475L4.48302 23.4C4.05445 23.3375 3.73005 23.275 3.50981 23.2125C3.28957 23.15 2.986 23.0188 2.5991 22.8188C2.2122 22.6188 1.87589 22.3625 1.59017 22.05C1.51875 21.975 1.42648 21.8594 1.31339 21.7031C1.20029 21.5469 1.02768 21.1813 0.795534 20.6063C0.563391 20.0312 0.405654 19.4 0.322321 18.7125C0.227083 17.9125 0.152678 17.0594 0.0991069 16.1531C0.0455356 15.2469 0.0127976 14.5375 0.000892855 14.025V10.725C-0.0110119 8.9125 0.0961307 7.1 0.322321 5.2875C0.405654 4.6 0.554463 3.97813 0.768748 3.42188C0.983033 2.86563 1.17351 2.48125 1.34018 2.26875L1.59017 1.95C1.75684 1.7625 1.92946 1.59688 2.10803 1.45312C2.2866 1.30938 2.47112 1.1875 2.6616 1.0875C2.85208 0.9875 3.01874 0.90625 3.1616 0.84375C3.30446 0.78125 3.4741 0.73125 3.67053 0.69375C3.86695 0.65625 4.00683 0.628125 4.09017 0.609375C4.1735 0.590625 4.31041 0.571875 4.50088 0.553125C4.69136 0.534375 4.79255 0.525 4.80445 0.525C7.79254 0.3 11.5247 0.1875 16.0009 0.1875Z" fill="white"/>
</svg>
